<?xml version="1.0" encoding="UTF-8" standalone="no"?>
<svg width="112px" height="155px" viewBox="0 0 112 155" version="1.1" xmlns="http://www.w3.org/2000/svg" xmlns:xlink="http://www.w3.org/1999/xlink">
    <!-- Generator: Sketch 3.7.2 (28276) - http://www.bohemiancoding.com/sketch -->
    <title>Combined Shape</title>
    <desc>Created with Sketch.</desc>
    <defs></defs>
    <g id="Symbols" stroke="none" stroke-width="1" fill="none" fill-rule="evenodd">
        <g id="hisab&lt;br&gt;logo-primary" fill="#ffffff">
            <path d="M11.0198992,123.389149 L11.0198992,132.815362 L10.8466277,135.720731 L11.0198992,135.720731 C11.6090223,134.729883 12.5273614,133.873387 13.7922434,133.184831 C15.0397984,132.496275 16.3913162,132.143601 17.8294698,132.143601 C20.4978511,132.143601 22.542455,132.93292 23.9459543,134.528354 C25.3494536,136.123788 26.0598668,138.256631 26.0598668,140.926884 L26.0598668,153.527171 C26.0826281,153.563681 26.0945211,153.601383 26.0945211,153.639973 C26.0945211,153.959059 25.1761821,154.91632 24.0672444,154.91632 C23.011618,154.91632 22.1538752,154.075371 22.0504338,153.707149 L22.0226405,153.707149 L22.0226405,141.514675 C22.0226405,137.652046 20.255271,135.720731 16.7032049,135.720731 C15.0397984,135.720731 13.6709534,136.375699 12.6139971,137.66884 C11.5570409,138.961981 11.0372263,140.456651 11.0372263,142.169643 L11.0372263,153.559894 C11.0486586,153.586076 11.0545535,153.612805 11.0545535,153.639973 C11.0545535,153.959059 10.1362144,154.91632 9.02727674,154.91632 C8.00339937,154.91632 7.14200258,154.100279 7.01588087,153.723943 L7,153.723943 L7,123.192377 L7.0155985,123.192377 C7.13954834,122.81604 7.98740129,122 9.02727674,122 C10.1362144,122 11.0545535,122.95726 11.0545535,123.276347 C11.0545535,123.314936 11.0426605,123.352639 11.0198992,123.389149 Z M39.0562535,148.419523 L39.0205762,148.43382 C39.7483166,150.146812 40.9092357,151.557512 42.4686794,152.699506 C44.028123,153.841501 46.0207455,154.412499 48.4292196,154.412499 C50.9070022,154.395704 52.9516061,153.774325 54.5283769,152.531566 C56.1051477,151.288807 56.9021967,149.710167 56.9021967,147.846029 C56.9021967,146.452123 56.4170365,145.209364 55.446716,144.100958 C54.4763955,142.992551 52.9862604,142.203231 50.9589837,141.749792 L46.6965044,140.775737 C44.7905177,140.355886 43.8375244,139.532978 43.8375244,138.340602 C43.8375244,137.517694 44.253376,136.862726 45.0677521,136.375699 C45.8821283,135.888672 46.9044302,135.653555 48.1000037,135.653555 C50.5951135,135.653555 52.2411929,136.577227 53.0209147,138.424572 L53.0788187,138.401349 C53.2798173,138.712346 54.3309725,139.230278 55.2561173,138.878011 C56.2091106,138.525336 56.6596166,137.349753 56.5556537,137.04746 C56.5509627,137.035769 56.5451572,137.02458 56.5382743,137.013893 C55.8972219,135.452027 54.8229385,134.242856 53.3328035,133.403154 C51.8426684,132.563452 50.1446076,132.143601 48.2386209,132.143601 C45.9167826,132.143601 43.9241601,132.714598 42.2434264,133.873387 C40.5626927,135.032176 39.7136623,136.526845 39.7136623,138.37419 C39.7136623,139.986418 40.3374397,141.279559 41.5676675,142.236819 C42.7978953,143.194079 44.0974316,143.832253 45.4836038,144.184928 L49.8327188,145.209364 C51.790687,145.696391 52.7783346,146.620064 52.7783346,147.980381 C52.7783346,148.853671 52.3798101,149.575815 51.565434,150.113224 C50.7510579,150.650633 49.7287559,150.919338 48.4638739,150.919338 C45.7088568,150.919338 43.7508886,149.609403 42.6246238,146.989533 L42.609593,146.995556 C42.6088629,146.993537 42.6080975,146.991529 42.6072966,146.989533 C42.4686794,146.670446 41.3077602,146.116242 40.3201126,146.519299 C39.3497921,146.905562 38.9166133,148.114733 39.0552305,148.417026 C39.0555656,148.417861 39.0559066,148.418693 39.0562535,148.419523 Z M63.9746176,138.645487 C64.3300929,137.751628 64.9754058,137.045414 65.8949884,136.526845 C66.8479817,135.989436 67.904938,135.720731 69.0831843,135.720731 C70.6599551,135.720731 71.9941458,136.190964 73.0857563,137.114637 C74.1773669,138.038309 74.7145086,139.264274 74.7145086,140.809326 L74.7145086,141.413911 C73.1897192,140.557415 71.2490783,140.137564 68.8752585,140.137564 C66.2068771,140.137564 63.9716746,140.792532 62.1523237,142.085673 C60.3329727,143.378814 59.4319608,145.158982 59.4319608,147.442972 C59.4319608,149.542227 60.1943555,151.238425 61.736472,152.514772 C63.2785885,153.791119 65.1845752,154.429293 67.4717592,154.429293 C70.5733193,154.395704 72.929812,153.203328 74.5412371,150.818574 L74.7145086,150.818574 L74.7145086,153.723943 L74.7295032,153.723943 C74.8486387,154.100279 75.6632684,154.91632 76.6551496,154.91632 C77.729433,154.91632 78.5957906,153.959059 78.5957906,153.639973 C78.5957906,153.612257 78.5898915,153.584999 78.5784634,153.558311 L78.5784634,141.094824 C78.5784634,138.256631 77.6774515,136.056612 75.8581006,134.494766 C74.0387497,132.93292 71.7515657,132.143601 68.9965485,132.143601 C66.5880745,132.143601 64.6647606,132.68101 63.1919528,133.739034 C61.7191449,134.797059 60.7488244,135.955848 60.246337,137.215401 L60.254221,137.218666 C60.1254661,137.536673 60.5286225,138.702835 61.5285462,139.129921 C62.5508481,139.566567 63.7984031,139.045951 63.9543474,138.760453 C63.9722827,138.725686 63.9787582,138.687142 63.9746176,138.645487 Z M87.0167862,153.558311 L87.0167862,150.818574 L87.1900578,150.818574 C87.8311624,151.84301 88.8014829,152.699506 90.1183464,153.371268 C91.4178828,154.059824 92.8906907,154.395704 94.5367701,154.395704 C97.3264415,154.395704 99.7349155,153.33768 101.744865,151.204837 C103.772142,149.071994 104.777117,146.435329 104.777117,143.27805 C104.777117,140.12077 103.772142,137.484106 101.744865,135.351262 C99.7175884,133.218419 97.3264415,132.160395 94.5367701,132.160395 C92.8906907,132.160395 91.4178828,132.496275 90.1183464,133.184831 C88.81881,133.873387 87.8311624,134.713089 87.1900578,135.737525 L87.0167862,135.737525 L87.1900578,132.832156 L87.1900578,123.356426 C87.20149,123.330244 87.2073849,123.303515 87.2073849,123.276347 C87.2073849,122.95726 86.2890459,122 85.1801082,122 C84.1562308,122 83.294834,122.81604 83.1687123,123.192377 L83.1528314,123.192377 L83.1528314,153.723943 L83.1678261,153.723943 C83.2869616,154.100279 84.1015912,154.91632 85.0934724,154.91632 C86.1677558,154.91632 87.0341134,153.959059 87.0341134,153.639973 C87.0341134,153.612257 87.0282144,153.584999 87.0167862,153.558311 Z M31.1020679,132.832157 L31.1020679,153.723943 L31.1220811,153.723943 C31.2604592,154.118417 32.0995824,154.91632 33.1120175,154.91632 C34.1244526,154.91632 34.9635758,154.118417 35.101954,153.723943 L35.1392943,153.723943 L35.1392943,132.908793 C35.1507265,132.883556 35.1566214,132.857966 35.1566214,132.832156 C35.1566214,132.513069 34.2382824,131.555809 33.1293447,131.555809 C32.0030798,131.555809 31.1020679,132.496275 31.1020679,132.832156 Z M35.3992015,128.986321 L33.1120175,126.265686 L30.8248335,128.986321 L30.8248335,131.539015 C30.8248335,131.539015 31.569901,130.178698 33.1120175,130.178698 C34.7234426,130.178698 35.3992015,131.371075 35.3992015,131.371075 L35.3992015,128.986321 Z M64.9939765,149.92849 C64.0929646,149.323904 63.6251315,148.51779 63.6251315,147.493354 C63.6251315,146.384947 64.1276189,145.410893 65.1152666,144.587985 C66.1029142,143.765077 67.5930493,143.345226 69.5510174,143.345226 C71.8382014,143.345226 73.5535894,143.798665 74.6971814,144.705543 C74.6971814,146.351359 74.0214225,147.778852 72.6525775,148.988023 C71.2837326,150.197194 69.7762704,150.80178 68.0955367,150.80178 C66.9519447,150.818574 65.9123156,150.516281 64.9939765,149.92849 L64.9939765,149.92849 Z M89.0267358,148.769701 C87.6925452,147.409384 87.0341134,145.578833 87.0341134,143.27805 C87.0341134,140.977266 87.6925452,139.146716 89.0267358,137.786398 C90.3609265,136.426081 91.9723516,135.737525 93.8783383,135.737525 C95.7496707,135.737525 97.3610958,136.426081 98.7126136,137.803192 C100.064131,139.180304 100.73989,141.010854 100.73989,143.27805 C100.73989,145.545245 100.064131,147.375795 98.7126136,148.752907 C97.3610958,150.130018 95.7496707,150.818574 93.8783383,150.818574 C91.9723516,150.818574 90.3609265,150.130018 89.0267358,148.769701 Z M104.540997,17.5926109 C77.1107947,19.0450662 58.9325846,34.5484479 58.9325846,34.5484479 L55.8051506,37.4533585 L52.4496745,34.5484479 C33.3267186,19.8660192 6.51548752,17.5926109 6.51548752,17.5926109 C6.51548752,17.5926109 -4.54747351e-13,17.8767869 -4.54747351e-13,24.6654367 L-4.54747351e-13,91.5731062 C0.293196938,94.9832187 3.5509407,97.0987514 6.48291008,97.4776528 C33.94569,101.171941 45.1849059,110.107699 53.1989556,113.07576 C53.1989556,113.07576 55.4142213,112.823159 56.1309249,111.244403 C57.0105158,112.760009 59.0303169,113.07576 59.0303169,113.07576 C70.0089134,108.970995 76.0031619,100.350988 104.540997,97.4776528 C110.404936,96.8777256 111.577724,91.5731062 111.577724,91.5731062 L111.577724,24.6654367 C111.577724,18.5714395 104.540997,17.5926109 104.540997,17.5926109 Z M104.540997,91.5731062 C104.540997,91.5731062 81.8345232,92.0151578 59.0303169,106.981763 L59.0303169,85.5738343 L55.837728,85.5738343 L52.7754489,85.5738343 L52.7754489,106.729162 C52.7754489,106.729162 33.7176479,93.8780896 6.48291008,91.5731062 L6.48291008,24.6654367 C6.48291008,24.6654367 34.1085771,25.296939 52.5148294,43.2316046 L52.5148294,64.3869319 L59.0303169,64.3869319 L59.0303169,43.2316046 C59.0303169,43.2316046 77.0782173,24.6654367 104.540997,24.6654367 L104.540997,91.5731062 Z M6.80868445,10.2040339 L6.80868445,3.76271036 C6.80868445,1.07882555 9.12168252,1.52087716 9.12168252,1.52087716 C29.9386651,6.98337213 44.5007797,24.0339344 44.5007797,24.0339344 C24.9868946,12.2248413 6.80868445,10.2040339 6.80868445,10.2040339 Z M33.5873381,9.22520532 L33.5873381,2.15237947 C33.9131125,-0.97355695 36.551885,0.226297434 36.551885,0.226297434 C49.8760569,9.13047997 55.7399957,27.5703474 55.7399957,27.5703474 C55.7399957,27.5703474 61.571357,9.1936302 74.9281064,0.32102278 C74.9281064,0.32102278 77.5668789,-0.878831604 77.8926532,2.24710482 L77.8926532,9.28835555 C77.8926532,9.28835555 66.555705,16.9926837 55.7399957,30.759434 C44.891709,16.9611086 33.5873381,9.22520532 33.5873381,9.22520532 Z M66.9792117,24.0339344 C66.9792117,24.0339344 81.5413263,7.04652236 102.358309,1.5840274 C102.358309,1.5840274 104.671307,1.14197578 104.671307,3.82586059 L104.671307,10.235609 C104.671307,10.235609 86.4930968,12.2879915 66.9792117,24.0339344 Z" id="Combined-Shape"></path>
        </g>
    </g>
</svg>