<svg xmlns="http://www.w3.org/2000/svg" xmlns:xlink="http://www.w3.org/1999/xlink" width="348.023" height="221.567" viewBox="0 0 348.023 221.567"><defs><style>.a{fill:none;}.b,.i{fill:#6c63ff;}.b,.f,.g{opacity:0.1;}.c{fill:url(#a);}.d{fill:#fbbebe;}.e{fill:#f86d70;}.h{fill:#3f3d56;}.j{fill:#434175;}</style><linearGradient id="a" x1="27.757" y1="1" x2="27.757" y2="0.003" gradientUnits="objectBoundingBox"><stop offset="0" stop-color="gray" stop-opacity="0.251"/><stop offset="0.54" stop-color="gray" stop-opacity="0.122"/><stop offset="1" stop-color="gray" stop-opacity="0.102"/></linearGradient></defs><rect class="a" width="348.023" height="221.567"/><g transform="translate(4 7)"><path class="b" d="M650.5,320.238a9.412,9.412,0,0,0-5.462.6,8.048,8.048,0,0,1-6.589-.029,9.2,9.2,0,0,0-7.712.15,4.768,4.768,0,0,1-2.221.557c-3.127,0-5.729-3.149-6.27-7.305a6.051,6.051,0,0,0,1.563-1.687,8.782,8.782,0,0,1,15.679-.052,6.035,6.035,0,0,0,5.211,2.853h.081C647.283,315.334,649.439,317.33,650.5,320.238Z" transform="translate(-444.992 -250.026)"/><path class="b" d="M660.054,283.2,655,286.411l3.068-5.582a5.015,5.015,0,0,0-3.058-1.091h-.081a5.915,5.915,0,0,1-1.049-.075l-1.707,1.085.736-1.335a6.084,6.084,0,0,1-3-2.28l-3.068,1.954,1.954-3.521a8.979,8.979,0,0,0-6.869-3.475,9.419,9.419,0,0,0-7.862,4.853,5.862,5.862,0,0,1-5.211,2.8h-.173c-3.521,0-6.374,3.993-6.374,8.914s2.853,8.914,6.374,8.914a4.794,4.794,0,0,0,2.221-.554,9.191,9.191,0,0,1,7.712-.153,8.048,8.048,0,0,0,6.559.016,9.214,9.214,0,0,1,7.647.147,4.772,4.772,0,0,0,2.2.544c3.521,0,6.374-3.99,6.374-8.914A11.321,11.321,0,0,0,660.054,283.2Z" transform="translate(-445.033 -226.034)"/><path class="c" d="M569.562,315.281c.2-.029.4-.068.593-.117a1.864,1.864,0,0,1-.166.567,2.439,2.439,0,0,1-.925.814.283.283,0,0,0-.358-.023c-.42.248-.756.612-1.2.827-.156.078-.326.14-.472.225a2.585,2.585,0,0,0-.879.915.652.652,0,0,0-.1.651.528.528,0,0,0,.179.16,1.039,1.039,0,0,0,.619.186,2.315,2.315,0,0,0,.391-.081c.13-.023.352,0,.528-.033a2.97,2.97,0,0,0,.743-.192l.87-.3a4.782,4.782,0,0,0,.72-.3c.137-.072.267-.16.41-.228a3.211,3.211,0,0,1,.489-.173l.5-.147a.531.531,0,0,1,.225-.029c.068,0,.127.055.2.075a.582.582,0,0,0,.326-.029l.576-.166a1.086,1.086,0,0,0,.342-.14,1.049,1.049,0,0,0,.306-.883,6.693,6.693,0,0,0-.169-1.462.462.462,0,0,0-.186.14c-.059-.085-.127-.163-.189-.238a2.827,2.827,0,0,1-.573-1.055,1.89,1.89,0,0,0,.515-.573,12.6,12.6,0,0,0-1.231-3.355c-.2-.326-.433-.651-.651-.977-.6-.951-.723-2.153-1.407-3.042a.528.528,0,0,1,0-.622c.078-.1.205-.2.179-.326s-.111-.179-.075-.264.059-.065.094-.1c.114-.107.1-.293.111-.453a2.234,2.234,0,0,1,.5-1.085.628.628,0,0,1,.182-.2c.062-.039.134-.055.2-.094.221-.137.205-.459.309-.7.137-.326.482-.476.71-.73.287-.326.358-.778.651-1.062a.814.814,0,0,1,.1-.081,5.18,5.18,0,0,0-.176,1.485c-.029,1.716.394,3.495.2,5.211a3.592,3.592,0,0,0,1.84,3.377,8.792,8.792,0,0,0,1.433.609c.736.264,1.466.534,2.185.834q.762.326,1.5.687a19.309,19.309,0,0,1,1.775.993,6.841,6.841,0,0,1,1.915,1.589,1.534,1.534,0,0,0,.847-.326c.192.153.427.267.609.436a1.857,1.857,0,0,1,.479.948h-.075l.026.508a.215.215,0,0,1-.019.127.251.251,0,0,1-.068.062l-.391.264c-.283.192-.6.433-.612.778a.388.388,0,0,0,.085.28.6.6,0,0,0,.349.156,6.083,6.083,0,0,0,2.065.189,1.355,1.355,0,0,0,.879-.4,1.733,1.733,0,0,0,.326-.844c.085-.511.156-1.026.212-1.544a3.382,3.382,0,0,1,.208-1.023.12.12,0,0,1,.055-.068h.094a.137.137,0,0,0,.062-.1,6.249,6.249,0,0,0,.182-1.534,1.075,1.075,0,0,0-.062-.394.788.788,0,0,0-.544-.42,4.192,4.192,0,0,0-.7-.081,3.18,3.18,0,0,1-.583-.111.56.56,0,0,0-.241-.029.173.173,0,0,0-.15.169.2.2,0,0,0,.033.081l-.2-.039c-.16-.029-.388-.1-.622-.156v-.124a.244.244,0,0,0-.137-.218l-3.351-1.791-.629-.326c-1.374-.736-2.794-1.413-4.169-2.15-.094.029-.169-.078-.2-.169s-.046-.208-.133-.248-.1-.023-.134-.059a.143.143,0,0,1-.023-.111c.046-.671.524-1.286.427-1.954a2.356,2.356,0,0,1-.12-.84,3.439,3.439,0,0,1,.254-.531c.163-.407,0-.9.179-1.3a3.062,3.062,0,0,0,.244-.827,5.661,5.661,0,0,1,.511-1.628,2.9,2.9,0,0,1,.472-.72c.1-.111.215-.208.309-.326a2.642,2.642,0,0,0,.482-1.26,6.056,6.056,0,0,0,.068-2.466,3.491,3.491,0,0,1-.156-.831c0-.326.133-.723-.029-.993a.87.87,0,0,0,.326-.544.627.627,0,0,1,.046-.221.573.573,0,0,1,.212-.192.883.883,0,0,0,.326-.873c.173.078.355-.1.436-.27s.147-.388.326-.459a2.5,2.5,0,0,1,.381-.055c.2-.052.326-.248.469-.4a3.583,3.583,0,0,1,1.078-.668,11.962,11.962,0,0,0,2.931-2.368,9.952,9.952,0,0,0,1.264-1.43,4.637,4.637,0,0,0,.277-.459h.023v.026a.632.632,0,0,0,.046.166c.039.134.088.264.134.394a2.882,2.882,0,0,0,.563,1.075,1.442,1.442,0,0,0,.127.114,1.308,1.308,0,0,0,.163.111,2.007,2.007,0,0,0,.746.225c.1,0,.2.02.3.023h.3l2.052.055a5.923,5.923,0,0,1-.713-3.6c.117-3.2.739-6.426.163-9.572a2.493,2.493,0,0,0-.394-1.068,2.208,2.208,0,0,0-1.3-.707,7.856,7.856,0,0,1-1.453-.371,6.015,6.015,0,0,0-1.143-.544,2.526,2.526,0,0,0-.912,0c-.371.055-.739.12-1.107.2l-.088.02h-.44l-.036.016-.033.016-.033.016-.033.016-.033.02-.029.02-.029.02-.029.023-.026.02-.029.026-.023.02-.029.029-.02.023a.158.158,0,0,0-.029.036v.02L584,272.4h0a.926.926,0,0,0-.072.153.671.671,0,0,0-.023.078,1.46,1.46,0,0,0-.029.166v.254a1.033,1.033,0,0,0,.029.283,3.094,3.094,0,0,0-.147,5.234,1.363,1.363,0,0,1,0,.153v.033a4.17,4.17,0,0,1-.055.534,7.281,7.281,0,0,0-1.527-.134c-.306,0-.612.026-.922.052-.326-.391-.625-.821-.918-1.244l-.677-.993A10.027,10.027,0,0,1,579,275.95c-.166-.326-.3-.651-.479-.977-.381-.651-1.006-1.192-1.081-1.938l-.179.039c-.1-.163-.221-.326-.267-.423a8.271,8.271,0,0,1-.563-1.655,2.559,2.559,0,0,0-.27-.857,1.914,1.914,0,0,0-.394-.417,2.606,2.606,0,0,0-.847-.534,1.088,1.088,0,0,0-.863.049c-.046-.016-.088-.036-.134-.049a1.049,1.049,0,0,0-.958.111,1.3,1.3,0,0,0-.423.889,2.206,2.206,0,0,0,.228,1.348,5.368,5.368,0,0,0,1.085,1.124,4.389,4.389,0,0,1,.681.847,9.254,9.254,0,0,1-.052,2.058c-.049.293-.124.58-.15.873-.094,1.065.459,2.13.264,3.179a.769.769,0,0,0,.358.821,4.078,4.078,0,0,0,.928.254c.612.156,1.146.55,1.762.7.287.068.583.081.866.156h.046a2.062,2.062,0,0,0-.456.866c-.124.534,0,1.1-.133,1.628a3.71,3.71,0,0,1-.622,1.2l-1.492,2.156a13.911,13.911,0,0,1-1.1,1.443c-.684.746-1.866,1.339-2.211,2.238l-.029-.065c-.492.361-.674,1.036-1.068,1.5-.189.228-.427.414-.635.622a6.986,6.986,0,0,0-.69,1.026,15.631,15.631,0,0,0-1.589,2.531c-.218.472-.388.977-.56,1.453-.684,1.925-1.8,3.752-2.26,5.745a10.8,10.8,0,0,0-.456,1.423,2.769,2.769,0,0,0,.446,1.508c.384.717.8,1.414,1.146,2.15.2.43.375.873.6,1.3s.541.879.791,1.332A15.344,15.344,0,0,1,569.562,315.281Zm8.4-36.377-.059-.029a2.085,2.085,0,0,1-.619-.407,4.79,4.79,0,0,1-.951-2.251c-.02-.091-.039-.186-.055-.28A13.31,13.31,0,0,1,577.959,278.9Z" transform="translate(-406.563 -224.032)"/><path class="d" d="M590.515,271.885a2.523,2.523,0,0,0-.27-.85,1.93,1.93,0,0,0-.4-.417,2.6,2.6,0,0,0-.847-.528,1.055,1.055,0,0,0-.977.111,1.283,1.283,0,0,0-.423.883,2.179,2.179,0,0,0,.228,1.339,5.585,5.585,0,0,0,1.085,1.117,4.236,4.236,0,0,1,.71.883,2.464,2.464,0,0,0,.326.472.609.609,0,0,0,.511.2.883.883,0,0,0,.417-.244c.153-.134.57-.378.583-.593s-.326-.567-.394-.73a8.25,8.25,0,0,1-.55-1.645Z" transform="translate(-421.612 -224.637)"/><path class="e" d="M603.072,288.922a7.44,7.44,0,0,0-2.055-.254,10.727,10.727,0,0,1-3.449-.059,5.979,5.979,0,0,1-.827-.358,2.124,2.124,0,0,1-.616-.4,4.718,4.718,0,0,1-.954-2.234,14.6,14.6,0,0,1-.261-2.378,1.869,1.869,0,0,1-.9.238.651.651,0,0,1-.629-.583,9.687,9.687,0,0,1-.042,2.215c-.049.29-.124.573-.15.866-.094,1.055.462,2.114.264,3.156a.762.762,0,0,0,.358.814,4.058,4.058,0,0,0,.932.254c.612.156,1.15.544,1.765.69.287.068.583.081.866.156.407.108.775.326,1.189.414.309.055.629.016.945.042s.541.094.811.1a2.358,2.358,0,0,0,1.749-.866,7.522,7.522,0,0,0,1.006-1.814Z" transform="translate(-425.388 -233.316)"/><path class="f" d="M603.072,288.922a7.44,7.44,0,0,0-2.055-.254,10.727,10.727,0,0,1-3.449-.059,5.979,5.979,0,0,1-.827-.358,2.124,2.124,0,0,1-.616-.4,4.718,4.718,0,0,1-.954-2.234,14.6,14.6,0,0,1-.261-2.378,1.869,1.869,0,0,1-.9.238.651.651,0,0,1-.629-.583,9.687,9.687,0,0,1-.042,2.215c-.049.29-.124.573-.15.866-.094,1.055.462,2.114.264,3.156a.762.762,0,0,0,.358.814,4.058,4.058,0,0,0,.932.254c.612.156,1.15.544,1.765.69.287.068.583.081.866.156.407.108.775.326,1.189.414.309.055.629.016.945.042s.541.094.811.1a2.358,2.358,0,0,0,1.749-.866,7.522,7.522,0,0,0,1.006-1.814Z" transform="translate(-425.388 -233.316)"/><g class="g" transform="translate(99.008 44.678)"><path class="h" d="M457.632,653.776v1.677a6.286,6.286,0,0,1-12.572,0v-1.677a6.286,6.286,0,0,1,12.572,0Z" transform="translate(-424.519 -523.848)"/><path class="h" d="M445.06,567.95v-1.674a6.286,6.286,0,0,1,12.572,0v1.674a6.214,6.214,0,0,1-.27,1.817,6.283,6.283,0,0,1-12.3-1.817Z" transform="translate(-424.519 -464.846)"/><path class="h" d="M457.632,609.986v1.677a6.286,6.286,0,1,1-12.572,0v-1.677a6.286,6.286,0,0,1,12.572,0Z" transform="translate(-424.519 -494.32)"/><path class="h" d="M451.346,691.24a6.305,6.305,0,0,1,6.286,6.289V699.2a6.286,6.286,0,0,1-12.572,0v-1.674A6.305,6.305,0,0,1,451.346,691.24Z" transform="translate(-424.519 -553.348)"/><path class="f" d="M445.06,579.78v1.514a6.283,6.283,0,0,0,12.3,1.814Z" transform="translate(-424.519 -478.19)"/><path class="f" d="M445.06,623.53v1.518a6.286,6.286,0,0,0,12.3,1.817Z" transform="translate(-424.519 -507.691)"/><path class="f" d="M445.06,667.29V668.8a6.286,6.286,0,0,0,12.3,1.817Z" transform="translate(-424.519 -537.199)"/><path class="f" d="M445.06,711v1.515a6.283,6.283,0,0,0,12.3,1.817Z" transform="translate(-424.519 -566.673)"/><path class="h" d="M402.846,619.728l.5.384a2.374,2.374,0,0,0,3.381-3.257,2.323,2.323,0,0,0-.479-.5l-.5-.378a2.375,2.375,0,0,0-2.9,3.762Z" transform="translate(-395.43 -502.264)"/><path class="h" d="M418.838,626.036l.5.388a2.376,2.376,0,0,1-2.9,3.762l-.5-.388a2.375,2.375,0,0,1,2.9-3.762Z" transform="translate(-404.257 -509.047)"/><path class="h" d="M431.918,636.136l.5.388a2.376,2.376,0,0,1-2.9,3.762l-.5-.388a2.375,2.375,0,1,1,2.9-3.762Z" transform="translate(-413.077 -515.858)"/><path class="h" d="M444.994,646.236l.5.388a2.375,2.375,0,1,1-2.9,3.762l-.508-.388a2.375,2.375,0,1,1,2.9-3.762Z" transform="translate(-421.89 -522.668)"/><path class="f" d="M404.9,622.608l.456.348a2.374,2.374,0,0,0,3.381-3.257Z" transform="translate(-397.439 -505.109)"/><path class="f" d="M418,632.708l.456.348a2.374,2.374,0,0,0,3.381-3.257Z" transform="translate(-406.273 -511.919)"/><path class="f" d="M431.08,642.808l.453.349a2.374,2.374,0,0,0,3.384-3.257Z" transform="translate(-415.093 -518.73)"/><path class="i" d="M396.46,307.259a7.125,7.125,0,1,0,0,14.251,7.126,7.126,0,1,0,0,14.247,7.126,7.126,0,1,0,0,14.252,7.125,7.125,0,1,0,0,14.251l34.367,0a7.125,7.125,0,1,0,0-14.251,7.126,7.126,0,1,0,0-14.251,7.126,7.126,0,1,0,0-14.248,7.125,7.125,0,1,0,0-14.251,7.126,7.126,0,1,0,0-14.251,7.126,7.126,0,1,0,0-14.248h-1.57c-.9-6.129-7.817-10.9-16.242-10.9s-15.34,4.768-16.242,10.9h-.326a7.125,7.125,0,1,0,0,14.251,7.126,7.126,0,1,0,0,14.251Z" transform="translate(-386.817 -267.86)"/><path class="f" d="M389.72,308.443a7.146,7.146,0,0,0,7.126,7.126h34.367L397.055,301.32h-.208A7.146,7.146,0,0,0,389.72,308.443Z" transform="translate(-387.203 -290.422)"/><path class="f" d="M452.48,352.246a7.165,7.165,0,0,1-7.126,7.126H411l34.162-14.252h.208a7.165,7.165,0,0,1,7.11,7.126Z" transform="translate(-401.552 -319.957)"/><path class="f" d="M452.48,439.706a7.146,7.146,0,0,1-7.126,7.123H411l34.162-14.249h.208A7.146,7.146,0,0,1,452.48,439.706Z" transform="translate(-401.552 -378.932)"/><path class="f" d="M452.48,527.246a7.146,7.146,0,0,1-7.126,7.123H411l34.162-14.249h.208A7.146,7.146,0,0,1,452.48,527.246Z" transform="translate(-401.552 -437.961)"/><path class="f" d="M389.72,395.953a7.146,7.146,0,0,0,7.126,7.126h34.367L397.055,388.83h-.208A7.146,7.146,0,0,0,389.72,395.953Z" transform="translate(-387.203 -349.431)"/><path class="f" d="M389.72,483.456a7.165,7.165,0,0,0,7.126,7.126h34.367L397.055,476.33h-.208A7.165,7.165,0,0,0,389.72,483.456Z" transform="translate(-387.203 -408.433)"/><path class="i" d="M388.447,616.243l11.318-6.094a5.947,5.947,0,0,1-1.443-8.3,2.664,2.664,0,0,0-3.609-1.085l-.518.28c-1.384-1.86-4.511-2.2-7.282-.71s-4.2,4.289-3.417,6.468l-.1.055a5.962,5.962,0,0,1,1.441,8.3,2.665,2.665,0,0,0,3.61,1.083Z" transform="translate(-381.993 -491.425)"/><path class="f" d="M382.349,623a2.674,2.674,0,0,0,3.609,1.085L397.266,618l-13.774,1.365-.068.036A2.674,2.674,0,0,0,382.349,623Z" transform="translate(-382.021 -503.962)"/><path class="f" d="M414,618.522a2.671,2.671,0,0,1-1.081,3.609L401.6,628.225l8.722-10.748.068-.039A2.674,2.674,0,0,1,414,618.522Z" transform="translate(-395.214 -503.371)"/></g><g class="g" transform="translate(61.547 152.684)"><path class="h" d="M288.672,709.936v.479a1.8,1.8,0,0,1-3.605,0v-.479a1.8,1.8,0,1,1,3.605,0Z" transform="translate(-279.173 -672.693)"/><path class="h" d="M285.07,685.645v-.482a1.8,1.8,0,0,1,3.605,0v.482a1.743,1.743,0,0,1-.078.521,1.8,1.8,0,0,1-3.527-.521Z" transform="translate(-279.176 -656.092)"/><path class="h" d="M288.672,697.4v.479a1.8,1.8,0,0,1-3.605,0V697.4a1.8,1.8,0,1,1,3.605,0Z" transform="translate(-279.173 -664.237)"/><path class="h" d="M286.871,720.83a1.808,1.808,0,0,1,1.8,1.8v.479a1.8,1.8,0,1,1-3.605,0v-.479A1.808,1.808,0,0,1,286.871,720.83Z" transform="translate(-279.173 -681.307)"/><path class="f" d="M285.07,688.89v.433a1.8,1.8,0,0,0,3.527.521Z" transform="translate(-279.176 -659.77)"/><path class="f" d="M285.07,701.43v.433a1.8,1.8,0,0,0,3.527.521Z" transform="translate(-279.176 -668.226)"/><path class="f" d="M285.07,714v.433a1.8,1.8,0,0,0,3.527.521Z" transform="translate(-279.176 -676.702)"/><path class="f" d="M285.07,726.51v.433a1.8,1.8,0,0,0,3.527.521Z" transform="translate(-279.176 -685.137)"/><path class="h" d="M272.986,700.323l.143.114a.681.681,0,0,0,.977-.935.651.651,0,0,0-.137-.147l-.143-.111a.681.681,0,0,0-.834,1.078Z" transform="translate(-270.854 -666.656)"/><path class="h" d="M277.556,702.145l.143.111a.681.681,0,1,1-.83,1.078l-.147-.111a.681.681,0,1,1,.834-1.078Z" transform="translate(-273.369 -668.612)"/><path class="h" d="M281.342,705.061l.143.111a.68.68,0,1,1-.831,1.078l-.143-.111a.681.681,0,0,1,.831-1.078Z" transform="translate(-275.934 -670.586)"/><path class="h" d="M285.092,707.961l.143.111a.681.681,0,1,1-.831,1.078l-.143-.111a.681.681,0,0,1,.83-1.078Z" transform="translate(-278.462 -672.542)"/><path class="f" d="M273.56,701.164l.13.1a.681.681,0,0,0,.977-.935Z" transform="translate(-271.415 -667.484)"/><path class="f" d="M277.32,704.054l.13.1a.681.681,0,0,0,.977-.935Z" transform="translate(-273.95 -669.433)"/><path class="f" d="M281.07,706.947l.13.1a.681.681,0,0,0,.954-.121.69.69,0,0,0,0-.814Z" transform="translate(-276.479 -671.381)"/><path class="i" d="M271.252,610.772a4.644,4.644,0,0,1-1.964,6.128,2.044,2.044,0,0,1-.078,4.086,2.042,2.042,0,0,1,0,4.084,2.042,2.042,0,0,0,2.042,2.042H281.1a4.566,4.566,0,0,1,2.042-6.126,2.044,2.044,0,0,1-.079-4.086,2.044,2.044,0,0,1,.079-4.086,2.042,2.042,0,0,1,0-4.084,2.042,2.042,0,1,1,0-4.084A2.042,2.042,0,0,0,281.1,602.6h-.449c-.261-1.755-2.244-3.123-4.657-3.123s-4.4,1.368-4.654,3.123h-.091a4.566,4.566,0,0,1-2.042,6.126A2.042,2.042,0,0,0,271.252,610.772Z" transform="translate(-268.482 -599.48)"/><path class="f" d="M269.21,611.112a2.049,2.049,0,0,0,2.042,2.042H281.1l-9.79-4.084h-.062a2.049,2.049,0,0,0-2.042,2.042Z" transform="translate(-268.482 -605.947)"/><path class="f" d="M287.194,623.652a2.049,2.049,0,0,1-2.042,2.042H275.3l9.79-4.084h.062A2.049,2.049,0,0,1,287.194,623.652Z" transform="translate(-272.588 -614.402)"/><path class="f" d="M287.194,648.765a2.052,2.052,0,0,1-2.042,2.042H275.3l9.79-4.087h.062a2.052,2.052,0,0,1,2.042,2.045Z" transform="translate(-272.588 -631.334)"/><path class="f" d="M287.194,673.822a2.049,2.049,0,0,1-2.042,2.042H275.3l9.79-4.084h.062a2.049,2.049,0,0,1,2.042,2.042Z" transform="translate(-272.588 -648.232)"/><path class="f" d="M269.21,636.192a2.049,2.049,0,0,0,2.042,2.042H281.1l-9.79-4.084h-.062a2.049,2.049,0,0,0-2.042,2.042Z" transform="translate(-268.482 -622.858)"/><path class="f" d="M269.21,661.282a2.049,2.049,0,0,0,2.042,2.042H281.1l-9.79-4.084h-.062A2.049,2.049,0,0,0,269.21,661.282Z" transform="translate(-268.482 -639.777)"/><path class="i" d="M269.646,699.334l3.257-1.749a1.7,1.7,0,0,1-.414-2.378.762.762,0,0,0-1.036-.309l-.147.078a1.881,1.881,0,0,0-3.065,1.651l-.029.016a1.7,1.7,0,0,1,.414,2.378A.765.765,0,0,0,269.646,699.334Z" transform="translate(-267.787 -663.557)"/><path class="f" d="M267.073,701.3a.765.765,0,0,0,1.036.326l3.257-1.746-3.964.365h-.02a.765.765,0,0,0-.309,1.055Z" transform="translate(-266.974 -667.181)"/><path class="f" d="M276.146,700a.769.769,0,0,1-.309,1.036l-3.257,1.746,2.5-3.081h.02a.769.769,0,0,1,1.049.3Z" transform="translate(-270.754 -666.991)"/></g><g class="g" transform="translate(224.134 12.389)"><path class="h" d="M834.26,639.133v2.042a7.664,7.664,0,0,0,15.327,0v-2.042a7.664,7.664,0,1,0-15.327,0Z" transform="translate(-812.086 -480.756)"/><path class="h" d="M849.587,534.506v-2.042a7.664,7.664,0,0,0-15.327,0v2.042a7.534,7.534,0,0,0,.326,2.215,7.66,7.66,0,0,0,14.982-2.215Z" transform="translate(-812.086 -408.828)"/><path class="h" d="M834.26,585.794v2.045a7.664,7.664,0,0,0,15.327,0v-2.045a7.664,7.664,0,0,0-15.327,0Z" transform="translate(-812.086 -444.788)"/><path class="h" d="M841.923,684.8a7.686,7.686,0,0,0-7.664,7.664v2.042a7.664,7.664,0,0,0,15.327,0v-2.042a7.683,7.683,0,0,0-7.664-7.664Z" transform="translate(-812.086 -516.717)"/><path class="f" d="M850.3,548.93v1.847a7.66,7.66,0,0,1-14.982,2.215Z" transform="translate(-812.8 -425.099)"/><path class="f" d="M850.3,602.27v1.847a7.66,7.66,0,0,1-14.982,2.215Z" transform="translate(-812.8 -461.066)"/><path class="f" d="M850.3,655.6v1.847a7.66,7.66,0,0,1-14.982,2.215Z" transform="translate(-812.8 -497.027)"/><path class="f" d="M850.3,708.93v1.847a7.66,7.66,0,0,1-14.982,2.215Z" transform="translate(-812.8 -532.988)"/><path class="h" d="M919.528,597.6l-.612.472a2.9,2.9,0,0,1-4.123-3.977,2.8,2.8,0,0,1,.586-.609l.612-.472a2.9,2.9,0,0,1,3.537,4.586Z" transform="translate(-866.026 -454.417)"/><path class="h" d="M899.91,605.308l-.609.466a2.9,2.9,0,1,0,3.537,4.583l.609-.469a2.9,2.9,0,1,0-3.537-4.586Z" transform="translate(-855.142 -462.704)"/><path class="h" d="M883.953,617.632l-.612.472a2.9,2.9,0,1,0,3.537,4.582l.612-.469a2.9,2.9,0,1,0-3.537-4.586Z" transform="translate(-844.38 -471.018)"/><path class="h" d="M868.125,629.842l-.609.469a2.9,2.9,0,1,0,3.537,4.586l.609-.472a2.9,2.9,0,1,0-3.537-4.583Z" transform="translate(-833.75 -479.219)"/><path class="f" d="M919.47,601.13l-.554.427a2.9,2.9,0,0,1-4.123-3.977Z" transform="translate(-866.026 -457.904)"/><path class="f" d="M903.585,613.44l-.55.423a2.9,2.9,0,0,1-4.11-3.973Z" transform="translate(-855.339 -466.204)"/><path class="f" d="M887.57,625.747l-.554.427a2.9,2.9,0,0,1-4.123-3.973Z" transform="translate(-844.519 -474.505)"/><path class="i" d="M816.963,216.743a8.686,8.686,0,1,1,0,17.372,8.685,8.685,0,1,1,0,17.371,8.686,8.686,0,0,1,0,17.368,8.686,8.686,0,0,1,0,17.372H775.069a8.686,8.686,0,1,1,0-17.372,8.685,8.685,0,1,1,0-17.371,8.686,8.686,0,1,1,0-17.368,8.686,8.686,0,1,1,0-17.372,8.685,8.685,0,1,1,0-17.371,8.686,8.686,0,1,1,0-17.368h1.915c1.1-7.471,9.543-13.285,19.8-13.285s18.7,5.814,19.8,13.285h.381a8.685,8.685,0,1,1,0,17.371,8.686,8.686,0,0,1,0,17.368Z" transform="translate(-766.176 -168.72)"/><path class="f" d="M844.057,218.2a8.709,8.709,0,0,1-8.683,8.683H793.48l41.636-17.369h.257A8.709,8.709,0,0,1,844.057,218.2Z" transform="translate(-784.587 -196.225)"/><path class="f" d="M767.6,271.526a8.709,8.709,0,0,0,8.686,8.683h41.891L776.54,262.84h-.254a8.712,8.712,0,0,0-8.686,8.686Z" transform="translate(-767.136 -232.186)"/><path class="f" d="M767.6,378.193a8.712,8.712,0,0,0,8.686,8.686h41.891L776.54,369.51h-.254a8.709,8.709,0,0,0-8.686,8.683Z" transform="translate(-767.136 -304.114)"/><path class="f" d="M767.6,484.856a8.712,8.712,0,0,0,8.686,8.686h41.891L776.54,476.17h-.254a8.712,8.712,0,0,0-8.686,8.686Z" transform="translate(-767.136 -376.036)"/><path class="f" d="M844.057,324.856a8.709,8.709,0,0,1-8.683,8.686H793.48l41.636-17.372h.257A8.709,8.709,0,0,1,844.057,324.856Z" transform="translate(-784.587 -268.147)"/><path class="f" d="M844.057,431.526a8.709,8.709,0,0,1-8.683,8.683H793.48l41.636-17.369h.257A8.709,8.709,0,0,1,844.057,431.526Z" transform="translate(-784.587 -340.075)"/><path class="i" d="M902.317,593.324l-13.8-7.426a3.257,3.257,0,0,1,3.081-5.719,3.257,3.257,0,1,1,3.078-5.719l.632.326c1.687-2.28,5.494-2.684,8.872-.866s5.13,5.231,4.166,7.885l.127.068a4.87,4.87,0,0,0-1.228,8.507,3.257,3.257,0,0,1-4.931,2.945Z" transform="translate(-847.659 -441.181)"/><path class="f" d="M919.333,601.573a3.257,3.257,0,0,1-4.4,1.3L901.14,595.45l16.789,1.661.085.046a3.257,3.257,0,0,1,1.319,4.416Z" transform="translate(-857.183 -456.467)"/><path class="f" d="M887.091,596.16a3.257,3.257,0,0,0,1.319,4.4l13.8,7.426-10.634-13.1-.081-.046A3.257,3.257,0,0,0,887.091,596.16Z" transform="translate(-847.449 -455.796)"/></g><ellipse class="h" cx="170.011" cy="7.491" rx="170.011" ry="7.491" transform="translate(0 193.018)"/><ellipse class="f" cx="36.803" cy="4.908" rx="36.803" ry="4.908" transform="translate(126.694 195.275)"/><path class="h" d="M552.069,412.838a7.491,7.491,0,0,1-8.878-8.168c.853-7.543,3.508-19.695,10.767-37.937,8.416-21.15,5.38-26.261-3.638-41.428-2.912-4.9-6.214-10.455-9.771-17.587-9.171-18.323-5.687-32.445-1.159-41.04a41.7,41.7,0,0,1,12.467-14.457l7.107,11.757-.651.651c-.016,0,.326,0,.821.9a28.4,28.4,0,0,0-6.732,8.621c-3.941,7.892-3.42,16.936,1.547,26.86,3.325,6.651,6.478,11.956,9.259,16.636,5,8.4,8.94,15.04,10.246,23.421,1.352,8.673-.326,18-5.566,31.2-6.908,17.356-9.119,28.218-9.794,34.048a7.507,7.507,0,0,1-6.016,6.514Z" transform="translate(-386.021 -212.635)"/><path class="i" d="M409,30.143,439.143,0l30.436,30.143H448.894V53.192H429.685v-22.9Z" transform="translate(-275.792)"/><ellipse class="f" cx="19.216" cy="2.563" rx="19.216" ry="2.563" transform="translate(210.071 194.93)"/><path class="h" d="M767.414,563.469a3.908,3.908,0,0,1-4.635-4.263c.443-3.938,1.83-10.282,5.621-19.805,4.394-11.044,2.807-13.712-1.9-21.632-1.521-2.557-3.257-5.459-5.11-9.185-4.781-9.566-2.964-16.936-.6-21.424a21.781,21.781,0,0,1,6.514-7.549l3.71,6.139-.345.326s.176,0,.43.472a14.813,14.813,0,0,0-3.517,4.5c-2.055,4.12-1.782,8.839.811,14.024,1.736,3.472,3.381,6.243,4.833,8.686,2.606,4.387,4.667,7.852,5.351,12.23.7,4.527-.166,9.4-2.909,16.285-3.605,9.061-4.762,14.731-5.113,17.776a3.908,3.908,0,0,1-3.14,3.4Z" transform="translate(-536.795 -365.966)"/><path class="i" d="M655.44,301.2l15.737-15.737L687.071,301.2h-10.8v12.034H666.24V301.276Z" transform="translate(-441.968 -192.488)"/><ellipse class="f" cx="19.216" cy="2.563" rx="19.216" ry="2.563" transform="translate(78.492 194.93)"/><path class="h" d="M350.313,563.469a3.908,3.908,0,0,0,4.635-4.263c-.443-3.938-1.83-10.282-5.621-19.805-4.394-11.044-2.807-13.712,1.9-21.632,1.521-2.557,3.257-5.459,5.11-9.185,4.781-9.566,2.964-16.936.6-21.424a21.782,21.782,0,0,0-6.514-7.549l-3.71,6.139.345.326s-.176,0-.43.472a14.813,14.813,0,0,1,3.517,4.5c2.055,4.12,1.782,8.839-.811,14.024-1.736,3.472-3.381,6.243-4.833,8.686-2.606,4.387-4.667,7.852-5.351,12.23-.7,4.527.166,9.4,2.908,16.285,3.605,9.061,4.762,14.731,5.113,17.776a3.908,3.908,0,0,0,3.14,3.4Z" transform="translate(-253.937 -365.966)"/><path class="i" d="M283.071,301.2,267.334,285.46,251.44,301.2h10.8v12.034h10.031V301.276Z" transform="translate(-169.548 -192.488)"/><ellipse class="f" cx="6.84" cy="0.814" rx="6.84" ry="0.814" transform="translate(156.481 95.682) rotate(-16.49)"/><ellipse class="f" cx="6.84" cy="0.814" rx="6.84" ry="0.814" transform="translate(159.411 102.196) rotate(-16.49)"/><ellipse class="f" cx="6.84" cy="0.814" rx="6.84" ry="0.814" transform="translate(162.667 107.08) rotate(-16.49)"/><ellipse class="f" cx="6.84" cy="0.814" rx="6.84" ry="0.814" transform="translate(165.275 111.966) rotate(-16.49)"/><path class="i" d="M924.414,705.868H910.579a4.327,4.327,0,0,0-2.565-7.144,2.869,2.869,0,0,1,2.565-4.33h.632c.361-2.469,3.146-4.39,6.533-4.393s6.188,1.915,6.543,4.38h.127a6.414,6.414,0,0,0,2.869,8.6,2.869,2.869,0,0,1-2.869,2.869Z" transform="translate(-637.415 -507.834)"/><path class="f" d="M933.428,706.329a2.873,2.873,0,0,1-2.866,2.869H916.73l13.744-5.748h.085A2.876,2.876,0,0,1,933.428,706.329Z" transform="translate(-643.562 -516.903)"/><path class="f" d="M908.17,724.086a2.876,2.876,0,0,0,2.869,2.866h13.835l-13.754-5.722h-.075A2.879,2.879,0,0,0,908.17,724.086Z" transform="translate(-637.79 -528.893)"/><path class="i" d="M681.371,709.555h-7.852a3.641,3.641,0,0,0-1.628-4.885,1.628,1.628,0,0,1,1.628-1.628h.362c.2-1.4,1.785-2.492,3.706-2.492s3.5,1.085,3.713,2.485h.072A3.641,3.641,0,0,0,683,707.92a1.628,1.628,0,0,1-1.628,1.628Z" transform="translate(-478.465 -514.948)"/><path class="f" d="M686.371,709.828a1.629,1.629,0,0,1-1.628,1.628H676.89l7.817-3.257h.036A1.629,1.629,0,0,1,686.371,709.828Z" transform="translate(-481.836 -520.106)"/><path class="f" d="M672.05,719.858a1.628,1.628,0,0,0,1.628,1.628h7.849l-7.817-3.257h-.049a1.628,1.628,0,0,0-1.612,1.628Z" transform="translate(-478.573 -526.87)"/><path class="i" d="M207.714,717.163H191.1a5.2,5.2,0,0,0-3.069-8.571A3.443,3.443,0,0,1,191.1,703.4h.756c.433-2.961,3.778-5.266,7.839-5.27s7.41,2.3,7.849,5.253h.15a7.792,7.792,0,0,0,3.337,10.323,3.443,3.443,0,0,1-3.337,3.441Z" transform="translate(-151.874 -513.316)"/><path class="f" d="M218.5,717.716a3.449,3.449,0,0,1-3.436,3.443H198.45l16.486-6.9h.1A3.456,3.456,0,0,1,218.5,717.716Z" transform="translate(-159.22 -524.193)"/><path class="f" d="M188.22,738.969a3.452,3.452,0,0,0,3.446,3.436h16.61l-16.5-6.866h-.1A3.456,3.456,0,0,0,188.22,738.969Z" transform="translate(-152.322 -538.542)"/><path class="b" d="M313.063,265.554a6.618,6.618,0,0,0-3.84.41,5.624,5.624,0,0,1-4.592,0,6.449,6.449,0,0,0-5.4.1,3.351,3.351,0,0,1-1.554.391c-2.189,0-4.009-2.2-4.387-5.117a4.214,4.214,0,0,0,1.094-1.179,6.154,6.154,0,0,1,10.982-.036,4.234,4.234,0,0,0,3.635,2h.059C310.8,262.121,312.31,263.518,313.063,265.554Z" transform="translate(-223.172 -215.703)"/><path class="b" d="M319.72,239.6l-3.537,2.244,2.146-3.908a3.482,3.482,0,0,0-2.14-.765h-.055a3.91,3.91,0,0,1-.733-.052l-1.2.759.515-.935a4.277,4.277,0,0,1-2.1-1.593l-2.153,1.365,1.355-2.465a6.285,6.285,0,0,0-4.807-2.43,6.574,6.574,0,0,0-5.5,3.394,4.12,4.12,0,0,1-3.638,1.954h-.107c-2.462,0-4.462,2.794-4.462,6.24s2,6.24,4.462,6.24a3.312,3.312,0,0,0,1.554-.391,6.449,6.449,0,0,1,5.4-.1,5.7,5.7,0,0,0,2.309.5,5.631,5.631,0,0,0,2.28-.485,6.445,6.445,0,0,1,5.351.1,3.335,3.335,0,0,0,1.537.381c2.465,0,4.462-2.794,4.462-6.24a7.931,7.931,0,0,0-.935-3.807Z" transform="translate(-223.178 -198.879)"/><path class="b" d="M210.62,375.554a6.618,6.618,0,0,1,3.824.41,5.615,5.615,0,0,0,4.589,0,6.449,6.449,0,0,1,5.4.1,3.361,3.361,0,0,0,1.554.391c2.189,0,4.013-2.2,4.39-5.117a4.166,4.166,0,0,1-1.094-1.179,6.154,6.154,0,0,0-10.982-.036,4.234,4.234,0,0,1-3.648,1.993H214.6C212.864,372.121,211.353,373.518,210.62,375.554Z" transform="translate(-167.427 -289.877)"/><path class="b" d="M188.211,349.594l3.537,2.244-2.15-3.908a3.488,3.488,0,0,1,2.14-.765h.059a3.911,3.911,0,0,0,.733-.052l1.2.759-.515-.935a4.283,4.283,0,0,0,2.1-1.593l2.146,1.361L196.1,344.24a6.291,6.291,0,0,1,4.81-2.43,6.6,6.6,0,0,1,5.5,3.394,4.117,4.117,0,0,0,3.638,1.954h.117c2.465,0,4.462,2.794,4.462,6.24s-2,6.24-4.462,6.24a3.332,3.332,0,0,1-1.554-.391,6.449,6.449,0,0,0-5.4-.1,5.683,5.683,0,0,1-2.306.495,5.608,5.608,0,0,1-2.28-.485,6.452,6.452,0,0,0-5.354.1,3.325,3.325,0,0,1-1.537.381c-2.462,0-4.462-2.794-4.462-6.24A7.931,7.931,0,0,1,188.211,349.594Z" transform="translate(-151.688 -273.047)"/><path class="d" d="M624.267,401.215a1.7,1.7,0,0,1,.593.186,1.4,1.4,0,0,1,.518.694,6.123,6.123,0,0,1,.345,2.172,4.658,4.658,0,0,1-.225,1.762,1.1,1.1,0,0,1-.293.459,1.016,1.016,0,0,1-.4.2,1.078,1.078,0,0,1-.948-.117,1.5,1.5,0,0,1-.42-.977,2.3,2.3,0,0,0-.563-1.361c-.27-.251-.651-.378-.85-.687a1.462,1.462,0,0,1,.039-1.264c.127-.358.326-1.081.69-1.264S623.879,401.144,624.267,401.215Z" transform="translate(-444.748 -312.93)"/><path class="d" d="M578.508,405.66a2.782,2.782,0,0,0,.583,1.078c.166.192.371.423.283.651a.553.553,0,0,1-.156.212,7.948,7.948,0,0,1-4.641,1.993.172.172,0,0,1-.081,0c-.049-.023-.062-.085-.068-.14a1.734,1.734,0,0,1,0-.534,1.59,1.59,0,0,1,.8-.938,2.552,2.552,0,0,0,.945-.824c.248-.466.143-1.072.436-1.508a1.58,1.58,0,0,1,1.107-.57c.143-.023.456-.186.58-.111S578.459,405.513,578.508,405.66Z" transform="translate(-412.731 -315.622)"/><path class="e" d="M625.059,401.263a.173.173,0,0,1,.15-.169.511.511,0,0,1,.241.033,3.586,3.586,0,0,0,.583.107,4.23,4.23,0,0,1,.7.081.8.8,0,0,1,.544.417,1.048,1.048,0,0,1,.062.391,6.189,6.189,0,0,1-.182,1.524.108.108,0,0,1-.062.094.23.23,0,0,1-.094,0,.124.124,0,0,0-.055.065,3.363,3.363,0,0,0-.208,1.019c-.059.511-.127,1.023-.212,1.531a1.707,1.707,0,0,1-.326.837,1.384,1.384,0,0,1-.879.4,6.189,6.189,0,0,1-2.071-.189.6.6,0,0,1-.348-.156.4.4,0,0,1-.085-.277c0-.326.326-.583.612-.772l.423-.257a.208.208,0,0,0,.068-.062.234.234,0,0,0,.02-.127l-.026-.5a1.433,1.433,0,0,1,1.241.788c.055.107.107.234.218.277a.29.29,0,0,0,.342-.208.877.877,0,0,0,0-.44c-.228-1.228-.173-2.492-.326-3.732a.827.827,0,0,0-.127-.391C625.2,401.459,625.075,401.387,625.059,401.263Z" transform="translate(-445.374 -313.02)"/><path class="e" d="M570.673,412.528c-.059.094-.15.166-.2.267a.225.225,0,0,0,.042.3.29.29,0,0,0,.182.02A6.133,6.133,0,0,0,574,411.616a2.278,2.278,0,0,0,.4-.446c.107-.163.2-.362.381-.43a6.61,6.61,0,0,1,.173,1.453,1.032,1.032,0,0,1-.326.876,1.052,1.052,0,0,1-.326.14l-.577.163a.583.583,0,0,1-.326.029,1.445,1.445,0,0,0-.2-.072.468.468,0,0,0-.221.026l-.5.147a2.825,2.825,0,0,0-.492.169c-.143.068-.274.156-.41.231a5.117,5.117,0,0,1-.72.29l-.873.3a3.077,3.077,0,0,1-.743.192,3.182,3.182,0,0,0-.528.029c-.176.029-.257.068-.394.081a1.059,1.059,0,0,1-.619-.182.612.612,0,0,1-.179-.163c-.124-.192,0-.449.107-.651a2.521,2.521,0,0,1,.883-.912c.153-.085.326-.147.472-.221.446-.215.782-.577,1.2-.824S570.858,412.222,570.673,412.528Z" transform="translate(-408.061 -319.527)"/><path class="d" d="M614.92,299.7a3.641,3.641,0,0,0,1.544.6,6.538,6.538,0,0,0,.873.046,22.624,22.624,0,0,0,3.635-.3,4.5,4.5,0,0,1-1.143-1.778,2.98,2.98,0,0,1-.055-1.114,8.728,8.728,0,0,1,.326-1.4,9.323,9.323,0,0,1-1.537-.039c-.29-.029-1-.293-1.257-.091s-.059.844-.052,1.15a.126.126,0,0,1,0,.033,3.665,3.665,0,0,1-.293,1.342A2.524,2.524,0,0,1,614.92,299.7Z" transform="translate(-440.049 -241.852)"/><path class="f" d="M621.946,296.773a3.068,3.068,0,0,0,2.5.384,8.739,8.739,0,0,1,.326-1.4,9.334,9.334,0,0,1-1.537-.039c-.29-.029-1-.293-1.257-.091S621.939,296.467,621.946,296.773Z" transform="translate(-444.727 -241.852)"/><circle class="d" cx="3.062" cy="3.062" r="3.062" transform="translate(175.831 49.157)"/><path class="e" d="M587.4,315.455a1.43,1.43,0,0,0,.69,1.228,2.631,2.631,0,0,0,.749.264,14.731,14.731,0,0,0,4.273.528,2.384,2.384,0,0,0,.905-.189.977.977,0,0,0,.56-.7.4.4,0,0,1,.254-.41.866.866,0,0,0,.326-.866c.176.078.358-.1.44-.27s.147-.384.326-.456a2.439,2.439,0,0,1,.381-.055c.2-.052.326-.248.469-.4a3.524,3.524,0,0,1,1.081-.651,12,12,0,0,0,2.931-2.355,9.847,9.847,0,0,0,1.264-1.417c.1-.15.2-.3.28-.459a12.91,12.91,0,0,0,.707-1.612,1.876,1.876,0,0,0,.179-.925.817.817,0,0,0,0-.085,1.766,1.766,0,0,0-.277-.56,2.345,2.345,0,0,0-1.254-1.032,3.6,3.6,0,0,0-1.628.143,3.981,3.981,0,0,1-.547.085,5.091,5.091,0,0,1-1.7-.267l-.609-.166c-.3-.085-.456-.453-.762-.518a1.111,1.111,0,0,0-.414.023,5.62,5.62,0,0,0-1.8.59,2.735,2.735,0,0,0-.349.238,2.228,2.228,0,0,0-.814,1.2c-.127.531,0,1.094-.137,1.628a3.6,3.6,0,0,1-.622,1.186l-1.492,2.143a13.036,13.036,0,0,1-1.1,1.43C588.9,313.608,587.423,314.269,587.4,315.455Z" transform="translate(-421.493 -247.753)"/><path class="d" d="M593.576,271.885a2.524,2.524,0,0,0-.27-.85,1.929,1.929,0,0,0-.4-.417,2.605,2.605,0,0,0-.847-.528,1.055,1.055,0,0,0-.977.111,1.283,1.283,0,0,0-.423.883,2.179,2.179,0,0,0,.228,1.339,5.589,5.589,0,0,0,1.085,1.117,4.232,4.232,0,0,1,.71.883,2.471,2.471,0,0,0,.326.472.609.609,0,0,0,.511.2.883.883,0,0,0,.417-.244c.153-.134.57-.378.583-.593s-.326-.567-.394-.73A8.241,8.241,0,0,1,593.576,271.885Z" transform="translate(-423.675 -224.637)"/><path class="j" d="M565.639,352.351c.384.71.808,1.4,1.15,2.133.2.427.375.866.6,1.28s.541.876.795,1.322a15.365,15.365,0,0,1,1.322,3.661,7.367,7.367,0,0,0,2.606-.915c.052-.033.1-.065.153-.1a1.877,1.877,0,0,0,.528-.58,12.286,12.286,0,0,0-1.234-3.329c-.2-.326-.43-.651-.651-.977-.6-.945-.726-2.137-1.41-3.022a.518.518,0,0,1,0-.616c.078-.1.205-.2.179-.326s-.114-.179-.075-.264.059-.065.094-.094c.114-.107.1-.293.111-.449a2.225,2.225,0,0,1,.5-1.081.7.7,0,0,1,.182-.2c.062-.039.137-.055.2-.094.218-.137.2-.456.306-.694.14-.326.485-.469.71-.723.29-.326.362-.772.651-1.052a.841.841,0,0,1,.1-.081,4.982,4.982,0,0,0-.179,1.475c-.029,1.7.4,3.469.2,5.162a3.563,3.563,0,0,0,1.843,3.358,8.815,8.815,0,0,0,1.436.6c.736.261,1.469.531,2.189.83q.762.326,1.5.681a18.566,18.566,0,0,1,1.778.977,6.838,6.838,0,0,1,1.918,1.576,1.713,1.713,0,0,0,1.238-.681,4.754,4.754,0,0,0,.681-1.283,3.539,3.539,0,0,0,.326-1.208.231.231,0,0,0-.133-.218l-3.358-1.782-.629-.326c-1.374-.73-2.8-1.4-4.175-2.133-.091.026-.169-.078-.2-.169s-.046-.205-.134-.248-.1-.02-.133-.055a.143.143,0,0,1-.023-.111c.046-.651.524-1.277.427-1.938a2.322,2.322,0,0,1-.12-.834,3.9,3.9,0,0,1,.254-.528c.166-.4,0-.892.182-1.3a2.934,2.934,0,0,0,.241-.824,5.619,5.619,0,0,1,.515-1.628,2.934,2.934,0,0,1,.472-.717c.1-.107.215-.205.326-.326a2.605,2.605,0,0,0,.482-1.251,5.98,5.98,0,0,0,.068-2.449,3.6,3.6,0,0,1-.156-.824c0-.371.166-.8-.091-1.072a.824.824,0,0,0-.375-.192,11.87,11.87,0,0,0-1.821-.326l-2.807-.365a2.607,2.607,0,0,1-.935-.241,1.866,1.866,0,0,1-.785-1.006c-.5.358-.678,1.029-1.072,1.492a7.352,7.352,0,0,1-.651.619,7.488,7.488,0,0,0-.7.866,15.336,15.336,0,0,0-1.589,2.514c-.218.469-.388.958-.563,1.443-.684,1.912-1.8,3.726-2.28,5.7a10.988,10.988,0,0,0-.456,1.414A2.739,2.739,0,0,0,565.639,352.351Z" transform="translate(-406.496 -269.655)"/><path class="f" d="M610.884,334.824a.836.836,0,0,1,.1.414c-.062-.326-.489-.482-.515-.788,0-.14,0-.134.1-.059S610.76,334.7,610.884,334.824Z" transform="translate(-437.049 -268.009)"/><path class="f" d="M607.173,338.548a.651.651,0,0,1,.192.287.723.723,0,0,1,.039.5c-.062-.029-.081-.107-.1-.173a1.215,1.215,0,0,0-.134-.3c-.049-.081-.283-.27-.28-.358S607.111,338.5,607.173,338.548Z" transform="translate(-434.635 -270.794)"/><path class="f" d="M607.3,305.13a3.255,3.255,0,0,0,.651.43c.606.306,1.277.469,1.889.765a8.768,8.768,0,0,1,.876.511l1.814,1.15a2.16,2.16,0,0,1,.4.3c.215.234.215.651.414.892a1.208,1.208,0,0,0,.883.407,2.9,2.9,0,0,0,.977-.166,5.019,5.019,0,0,0,.56-.205,2.658,2.658,0,0,0,.537-.306,1.543,1.543,0,0,0,.651-1,2.013,2.013,0,0,0-.107-.818,3.068,3.068,0,0,0-.2-.5,1.6,1.6,0,0,0-.153-.261,2.886,2.886,0,0,0-1.86-1.006c-.375-.072-.756-.117-1.13-.182a3.975,3.975,0,0,1-.547.085,5.093,5.093,0,0,1-1.7-.267l-.609-.166c-.3-.085-.456-.453-.762-.518a1.11,1.11,0,0,0-.414.023,5.621,5.621,0,0,0-1.8.59A2.738,2.738,0,0,0,607.3,305.13Z" transform="translate(-434.911 -247.733)"/><path class="e" d="M598.222,282c.078.739.7,1.283,1.081,1.922.186.326.326.651.482.977a9.885,9.885,0,0,0,.651,1.01l.681.977a10.222,10.222,0,0,0,1.3,1.651,14.857,14.857,0,0,1,2.482,1.133,12.584,12.584,0,0,0,2.124.43,2.887,2.887,0,0,1,1.86,1.006,2.773,2.773,0,0,1,.348.759,2,2,0,0,1,.107.817,1.543,1.543,0,0,1-.651,1,3.385,3.385,0,0,1-1.1.511,2.821,2.821,0,0,1-.977.166,1.2,1.2,0,0,1-.883-.407c-.2-.248-.2-.651-.414-.889a1.992,1.992,0,0,0-.4-.3l-1.814-1.15a8.765,8.765,0,0,0-.876-.511c-.612-.3-1.283-.459-1.889-.769a2.289,2.289,0,0,1-1.3-1.482c-.368-2.055-1.791-3.788-3.006-5.485.039,0,.026-.1.042-.137a1.759,1.759,0,0,1,.889-.9A5.21,5.21,0,0,1,598.222,282Z" transform="translate(-427.312 -232.716)"/><path class="j" d="M622.435,279.044a1.1,1.1,0,0,1,.127-.651,1.436,1.436,0,0,1,1.006-.531c.368-.078.736-.14,1.107-.2a2.543,2.543,0,0,1,.915-.016,6.188,6.188,0,0,1,1.143.541,7.923,7.923,0,0,0,1.453.371,2.2,2.2,0,0,1,1.3.7,2.441,2.441,0,0,1,.388,1.085c.58,3.127-.046,6.331-.163,9.51a5.792,5.792,0,0,0,.716,3.583l-2.058-.052a2.524,2.524,0,0,1-1.508-.368,2.466,2.466,0,0,1-.69-1.182,3.655,3.655,0,0,1-.264-1.059c-.033-.749.391-1.482.254-2.215a2.469,2.469,0,0,0-.945-1.378,8.634,8.634,0,0,1-1.247-1.111,4.03,4.03,0,0,1-.651-2.84,10.725,10.725,0,0,0,.1-1.765,2.228,2.228,0,0,0-.466-1.241A1.72,1.72,0,0,1,622.435,279.044Z" transform="translate(-445.112 -229.76)"/><path class="f" d="M622.551,278.908a1.41,1.41,0,0,1,.977-.528.957.957,0,0,0-.489.384,1.1,1.1,0,0,0-.127.651,1.707,1.707,0,0,0,.528,1.186,2.228,2.228,0,0,1,.466,1.238,10.751,10.751,0,0,1-.1,1.768,4.108,4.108,0,0,0,.651,2.837,8.635,8.635,0,0,0,1.247,1.111,2.478,2.478,0,0,1,.931,1.352c.137.736-.287,1.469-.254,2.215a3.636,3.636,0,0,0,.264,1.059,1.87,1.87,0,0,0,2.2,1.55l1.459.039c.032.052.065.1.1.156l-2.058-.052a2.523,2.523,0,0,1-1.508-.368,2.465,2.465,0,0,1-.69-1.182,3.655,3.655,0,0,1-.264-1.059c-.033-.749.391-1.482.254-2.215a2.468,2.468,0,0,0-.928-1.348,8.633,8.633,0,0,1-1.247-1.111,4.03,4.03,0,0,1-.651-2.84,10.712,10.712,0,0,0,.1-1.765,2.228,2.228,0,0,0-.466-1.241,1.72,1.72,0,0,1-.528-1.186A1.1,1.1,0,0,1,622.551,278.908Z" transform="translate(-445.101 -230.275)"/><path class="f" d="M575.37,366.289l3.788,9.2a1.875,1.875,0,0,0,.528-.58,12.285,12.285,0,0,0-1.234-3.329c-.2-.326-.43-.651-.651-.977-.6-.944-.726-2.137-1.41-3.022a.518.518,0,0,1,0-.616c.078-.1.205-.2.179-.326s-.114-.179-.075-.264.059-.065.094-.094c.114-.107.1-.293.111-.449a2.225,2.225,0,0,1,.5-1.081.7.7,0,0,1,.182-.2c.062-.039.137-.055.2-.094.218-.137.2-.456.306-.694.14-.326.485-.469.71-.723.29-.326.361-.772.651-1.052l.026-.065-.287-1.778Z" transform="translate(-413.381 -285.413)"/></g></svg>